<svg width="250" height="40" viewBox="0 0 250 40" fill="none" xmlns="http://www.w3.org/2000/svg">
<path d="M235.633 14.855V17.6819C236.996 15.8195 239.158 14.5889 241.752 14.5889C246.309 14.5889 250 18.2806 250 22.837C250 27.3934 246.309 31.085 241.752 31.085C239.158 31.085 236.996 29.8545 235.633 27.992V39.3331H233.504V14.855H235.633ZM241.752 28.9565C245.145 28.9565 247.872 26.2293 247.872 22.837C247.872 19.4446 245.145 16.7174 241.752 16.7174C238.36 16.7174 235.633 19.4446 235.633 22.837C235.633 26.2293 238.36 28.9565 241.752 28.9565Z" fill="white"/>
<path d="M221.593 31.0852C217.003 31.0852 215.141 28.491 215.141 23.7683V14.8551H217.269V24.3005C217.269 26.8614 218.267 28.9566 221.526 28.9566C223.988 28.9566 226.848 27.1607 226.848 24.1674V14.8551H228.976V30.8191H226.848V28.358C226.016 29.6883 223.821 31.0852 221.593 31.0852Z" fill="white"/>
<path d="M204.214 14.5889C208.771 14.5889 212.462 18.2806 212.462 22.837C212.462 27.3934 208.771 31.085 204.214 31.085C199.658 31.085 195.966 27.3934 195.966 22.837C195.966 18.2806 199.658 14.5889 204.214 14.5889ZM204.214 28.9565C207.54 28.9565 210.334 26.1628 210.334 22.837C210.334 19.5111 207.54 16.7174 204.214 16.7174C200.888 16.7174 198.095 19.5111 198.095 22.837C198.095 26.1628 200.888 28.9565 204.214 28.9565Z" fill="white"/>
<path d="M187.467 18.2806C188.564 15.9857 191.391 14.5889 194.384 14.5889V17.0168C193.686 16.8505 192.389 16.6842 191.059 17.1498C188.997 17.8815 187.467 19.9767 187.467 23.1695V30.819H185.338V14.855H187.467V18.2806Z" fill="white"/>
<path d="M181.615 19.112V19.6441C181.615 25.9632 177.025 31.085 170.706 31.085C164.387 31.085 159.265 25.9632 159.265 19.6441C159.265 13.3251 164.387 8.20329 170.706 8.20329C175.229 8.20329 178.688 10.7309 180.584 14.4558L178.422 15.0545C176.992 12.2275 174.165 10.3318 170.706 10.3318C165.551 10.3318 161.393 14.4891 161.393 19.6441C161.393 24.7992 165.551 28.9565 170.706 28.9565C175.295 28.9565 178.688 25.6306 179.353 21.2405H169.908V19.112H181.615Z" fill="white"/>
<path d="M145.012 7.40517H149.269V30.819H145.012V7.40517Z" fill="white"/>
<path d="M136.756 14.3229H141.013V30.8191H136.756V29.0564C135.426 30.5863 133.697 31.3512 131.701 31.3512C127.145 31.3512 123.453 27.4267 123.453 22.571C123.453 17.7153 127.145 13.7908 131.701 13.7908C133.697 13.7908 135.426 14.5558 136.756 16.0856V14.3229ZM132.233 27.0941C134.728 27.0941 136.756 25.0654 136.756 22.571C136.756 20.0766 134.728 18.0479 132.233 18.0479C129.739 18.0479 127.71 20.0766 127.71 22.571C127.71 25.0654 129.739 27.0941 132.233 27.0941Z" fill="white"/>
<path d="M113.337 26.1297V18.0479H111.208V14.3229H113.337V8.46948H117.594V14.3229H120.787V18.0479H117.594V24.9656C117.594 27.4932 118.692 27.593 120.787 27.0941V30.8191C119.955 31.1517 119.057 31.3512 117.661 31.3512C114.634 31.3512 113.337 29.1894 113.337 26.1297Z" fill="white"/>
<path d="M103.502 27.0941C104.999 27.0941 106.396 26.5287 107.327 25.5975L109.089 29.389C107.759 30.686 105.464 31.3512 103.369 31.3512C97.5821 31.3512 94.1897 27.4267 94.1897 22.571C94.1897 17.7153 97.6486 13.7908 103.369 13.7908C105.464 13.7908 107.56 14.3895 109.089 15.7531L107.327 19.5778C106.396 18.6465 104.999 18.0479 103.502 18.0479C100.376 18.0479 98.4468 20.0766 98.4468 22.571C98.4468 25.0654 100.343 27.0941 103.502 27.0941Z" fill="white"/>
<path d="M87.2588 14.3229H91.5159V30.8191H87.2588V29.0564C85.9285 30.5863 84.1991 31.3512 82.2036 31.3512C77.6472 31.3512 73.9555 27.4267 73.9555 22.571C73.9555 17.7153 77.6472 13.7908 82.2036 13.7908C84.1991 13.7908 85.9285 14.5558 87.2588 16.0856V14.3229ZM82.7357 27.0941C85.2301 27.0941 87.2588 25.0654 87.2588 22.571C87.2588 20.0766 85.2301 18.0479 82.7357 18.0479C80.2413 18.0479 78.2126 20.0766 78.2126 22.571C78.2126 25.0654 80.2413 27.0941 82.7357 27.0941Z" fill="white"/>
<path d="M65.4408 17.8151C66.5383 15.2542 69.3653 13.9904 72.3585 13.7908V18.8128C71.2943 18.5467 70.1302 18.5467 69.1657 18.8128C67.3698 19.3117 65.4408 20.9746 65.4408 23.9013V30.8191H61.1837V14.3229H65.4408V17.8151Z" fill="white"/>
<path d="M48.4218 30.8191H44.1647V8.46948H58.0002V12.7265H48.4218V17.5157H56.4038V21.7728H48.4218V30.8191Z" fill="white"/>
<path d="M21.9292 4.53643C20.8974 3.94069 19.7591 3.55254 18.5795 3.39416C17.3998 3.23578 16.2019 3.31026 15.054 3.61335C13.9062 3.91645 12.8309 4.44221 11.8897 5.16064C10.9484 5.87906 10.1595 6.77608 9.56807 7.80046C8.97665 8.82484 8.59425 9.95654 8.44272 11.1309C8.29119 12.3053 8.37348 13.4994 8.68492 14.645C8.99635 15.7906 9.53082 16.8653 10.2578 17.8077C10.9848 18.7501 11.8901 19.5418 12.9219 20.1375L17.4256 12.337L21.9292 4.53643Z" fill="white"/>
<path d="M32.402 22.4261C32.9977 21.3943 33.3859 20.256 33.5443 19.0764C33.7027 17.8968 33.6282 16.6988 33.3251 15.551C33.022 14.4031 32.4962 13.3279 31.7778 12.3866C31.0594 11.4453 30.1624 10.6564 29.138 10.065C28.1136 9.47358 26.9819 9.09118 25.8075 8.93965C24.6331 8.78812 23.439 8.87042 22.2934 9.18185C21.1478 9.49328 20.0731 10.0277 19.1307 10.7547C18.1883 11.4817 17.3966 12.387 16.8009 13.4188L24.6014 17.9225L32.402 22.4261Z" fill="white"/>
<path d="M5.06437 15.6008C4.46863 16.6327 4.08018 17.7707 3.9212 18.95C3.76222 20.1293 3.83583 21.3268 4.13783 22.474C4.43982 23.6212 4.96428 24.6957 5.68127 25.6361C6.39826 26.5766 7.29374 27.3646 8.31656 27.9551C9.33939 28.5457 10.4695 28.9272 11.6425 29.0779C12.8155 29.2286 14.0082 29.1455 15.1527 28.8334C16.2972 28.5214 17.3711 27.9864 18.3129 27.2591C19.2547 26.5318 20.0461 25.6263 20.6418 24.5945L12.8531 20.0976L5.06437 15.6008Z" fill="white"/>
<path d="M15.5772 33.3654C16.6091 33.9611 17.7465 34.3507 18.9246 34.5118C20.1027 34.6729 21.2983 34.6024 22.4432 34.3043C23.5881 34.0063 24.6599 33.4865 25.5974 32.7747C26.5349 32.0628 27.3197 31.1729 27.907 30.1556C28.4943 29.1383 28.8727 28.0137 29.0204 26.8459C29.1681 25.6781 29.0824 24.49 28.768 23.3494C28.4537 22.2089 27.9169 21.1382 27.1884 20.1985C26.4598 19.2588 25.5537 18.4685 24.5219 17.8728L20.0495 25.6191L15.5772 33.3654Z" fill="white"/>
</svg>
