<svg width="293" height="37" viewBox="0 0 293 37" fill="none" xmlns="http://www.w3.org/2000/svg">
<path d="M278.547 10.0801C282.995 10.0801 286.482 11.2161 289.01 13.4881C291.57 15.7281 292.85 19.0081 292.85 23.3281C292.85 27.6481 291.57 30.9441 289.01 33.2161C286.482 35.4561 282.995 36.5761 278.547 36.5761C274.099 36.5761 270.61 35.4561 268.082 33.2161C265.554 30.9761 264.29 27.6801 264.29 23.3281C264.29 18.9761 265.554 15.6801 268.082 13.4401C270.61 11.2001 274.099 10.0801 278.547 10.0801ZM278.547 16.5601C275.411 16.5601 273.842 18.3681 273.842 21.9841V24.7201C273.842 28.3041 275.411 30.0961 278.547 30.0961C281.715 30.0961 283.298 28.3041 283.298 24.7201V21.9841C283.298 18.3681 281.715 16.5601 278.547 16.5601Z" fill="#3A82F5"/>
<path d="M249.794 7.67995V1.19995H259.346V7.67995H249.794ZM249.794 36V10.656H259.346V36H249.794Z" fill="#3A82F5"/>
<path d="M233.522 36V26.448H243.698V36H233.522Z" fill="#3A82F5"/>
<path d="M230.354 36H219.218L214.418 28.032H214.226L209.378 36H198.77L208.514 22.56L199.73 10.656H210.962L214.994 17.376H215.186L219.218 10.656H229.778L220.85 22.8L230.354 36Z" fill="#3A82F5"/>
<path d="M181.971 10.0801C185.843 10.0801 188.994 10.7361 191.426 12.0481C193.858 13.3281 195.075 15.4241 195.075 18.3361V28.2241C195.075 28.7681 195.202 29.2161 195.458 29.5681C195.714 29.9201 196.099 30.0961 196.611 30.0961H198.339V35.6161C198.243 35.6801 197.986 35.7921 197.57 35.9521C197.186 36.0801 196.627 36.2081 195.891 36.3361C195.155 36.4961 194.306 36.5761 193.346 36.5761C191.49 36.5761 189.954 36.3041 188.738 35.7601C187.554 35.1841 186.738 34.4001 186.29 33.4081C185.074 34.3681 183.714 35.1361 182.21 35.7121C180.706 36.2881 178.946 36.5761 176.93 36.5761C170.978 36.5761 168.003 34.2081 168.003 29.4721C168.003 27.0081 168.659 25.1361 169.971 23.8561C171.315 22.5441 173.234 21.6481 175.73 21.1681C178.226 20.6881 181.491 20.4481 185.523 20.4481V19.2001C185.523 18.2081 185.171 17.4561 184.467 16.9441C183.795 16.4321 182.915 16.1761 181.827 16.1761C180.835 16.1761 179.97 16.3521 179.234 16.7041C178.53 17.0561 178.178 17.6161 178.178 18.3841V18.5761H168.771C168.739 18.4161 168.723 18.1921 168.723 17.9041C168.723 15.5041 169.858 13.6001 172.13 12.1921C174.434 10.7841 177.715 10.0801 181.971 10.0801ZM185.523 24.9601C182.803 24.9601 180.787 25.2641 179.475 25.8721C178.195 26.4481 177.555 27.2321 177.555 28.2241C177.555 29.8241 178.642 30.6241 180.818 30.6241C182.066 30.6241 183.155 30.2881 184.083 29.6161C185.043 28.9441 185.523 28.1121 185.523 27.1201V24.9601Z" fill="#3A82F5"/>
<path d="M156.919 11.4241V36.0001H146.311V11.4241H135.463V2.97607H167.719V11.4241H156.919Z" fill="#3A82F5"/>
<path d="M132.807 10.6561V17.1361H127.431V26.7841C127.431 27.9361 127.623 28.7841 128.007 29.3281C128.391 29.8401 129.095 30.0961 130.119 30.0961H132.807V35.7121C132.039 35.9681 131.047 36.1761 129.831 36.3361C128.615 36.4961 127.559 36.5761 126.663 36.5761C123.847 36.5761 121.671 36.0641 120.135 35.0401C118.631 34.0161 117.879 32.2721 117.879 29.8081V17.1361H114.327V10.6561H118.263L120.327 2.97607H127.431V10.6561H132.807Z" fill="#3A82F5"/>
<path d="M107.575 0.624023C108.279 0.624023 109.159 0.720024 110.215 0.912025C111.271 1.07203 112.119 1.26402 112.759 1.48802V7.10402H110.551C109.527 7.10402 108.823 7.29602 108.439 7.68002C108.055 8.06402 107.863 8.72003 107.863 9.64802V10.656H112.759V17.136H107.863V36H98.311V17.136H94.759V10.656H98.311V9.60003C98.311 6.33603 99.111 4.03203 100.711 2.68803C102.311 1.31202 104.599 0.624023 107.575 0.624023Z" fill="#3A82F5"/>
<path d="M81.6066 7.67995V1.19995H91.1586V7.67995H81.6066ZM81.6066 36V10.656H91.1586V36H81.6066Z" fill="#3A82F5"/>
<path d="M59.7505 36L55.8145 21.888H55.6225L51.6385 36H42.3265L33.0625 10.656H43.3345L47.1745 25.632H47.5105L51.4945 10.656H60.9985L64.8385 25.632H65.1745L69.0625 10.656H78.3745L69.0625 36H59.7505Z" fill="#3A82F5"/>
<path d="M15.8459 2.3999C20.0699 2.3999 23.5419 3.2639 26.2619 4.9919C28.9819 6.6879 30.3739 9.2159 30.4379 12.5759V13.1519H20.5019V12.9599C20.5019 11.9999 20.1499 11.1999 19.4459 10.5599C18.7419 9.9199 17.6699 9.5999 16.2299 9.5999C14.8219 9.5999 13.7339 9.8079 12.9659 10.2239C12.2299 10.6399 11.8619 11.1519 11.8619 11.7599C11.8619 12.6239 12.3739 13.2639 13.3979 13.6799C14.4219 14.0959 16.0699 14.5279 18.3419 14.9759C20.9979 15.5199 23.1739 16.0959 24.8699 16.7039C26.5979 17.2799 28.1019 18.2399 29.3819 19.5839C30.6619 20.9279 31.3179 22.7519 31.3499 25.0559C31.3499 28.9599 30.0219 31.8559 27.3659 33.7439C24.7419 35.6319 21.2219 36.5759 16.8059 36.5759C11.6539 36.5759 7.63788 35.7119 4.75788 33.9839C1.90988 32.2559 0.485878 29.1999 0.485878 24.8159H10.5179C10.5179 26.4799 10.9499 27.5999 11.8139 28.1759C12.6779 28.7199 14.0219 28.9919 15.8459 28.9919C17.1899 28.9919 18.2939 28.8479 19.1579 28.5599C20.0539 28.2719 20.5019 27.6799 20.5019 26.7839C20.5019 25.9839 20.0059 25.3919 19.0139 25.0079C18.0539 24.5919 16.4699 24.1599 14.2619 23.7119C11.5739 23.1359 9.34988 22.5439 7.58988 21.9359C5.82988 21.2959 4.29388 20.2559 2.98188 18.8159C1.66988 17.3759 1.01388 15.4239 1.01388 12.9599C1.01388 9.3439 2.40588 6.6879 5.18988 4.9919C8.00588 3.2639 11.5579 2.3999 15.8459 2.3999Z" fill="#3A82F5"/>
</svg>
